<svg width="360" height="360" viewBox="0 0 360 360" fill="none" xmlns="http://www.w3.org/2000/svg">
<path d="M355.883 231.623C348.022 218.007 330.551 213.327 316.935 221.187L244.401 263.065C244.018 250.823 235.704 239.728 223.278 236.399L118.715 208.382C106.991 205.241 95.7148 206.725 85.2023 212.794L58.6008 228.153L55.439 222.677C55.1828 222.232 54.8414 221.843 54.4345 221.53C54.0275 221.218 53.563 220.989 53.0674 220.856C52.5719 220.723 52.055 220.689 51.5463 220.757C51.0377 220.824 50.5473 220.99 50.1031 221.247L2.26171 248.868C1.8174 249.125 1.42797 249.466 1.11565 249.873C0.803326 250.28 0.574239 250.745 0.441474 251.24C0.308708 251.736 0.274864 252.252 0.341874 252.761C0.408885 253.27 0.575438 253.76 0.832018 254.204L60.6484 357.809C60.9047 358.253 61.2461 358.643 61.653 358.955C62.0599 359.268 62.5245 359.497 63.0201 359.63C63.5156 359.763 64.0325 359.796 64.5411 359.729C65.0498 359.662 65.5402 359.495 65.9844 359.239L113.826 331.618C114.27 331.362 114.66 331.021 114.972 330.614C115.285 330.207 115.514 329.742 115.647 329.247C115.779 328.751 115.813 328.234 115.746 327.726C115.679 327.217 115.512 326.726 115.255 326.282L111.185 319.233L125.418 311.015L223.398 331.461C225.835 332.104 228.304 332.422 230.755 332.421C235.688 332.421 240.547 331.134 244.916 328.611L345.446 270.57C352.017 266.776 356.725 260.625 358.702 253.25C360.678 245.875 359.677 238.194 355.883 231.623ZM65.4609 350.52L9.55077 253.681L50.6265 229.966L106.537 326.806L65.4609 350.52ZM351.155 251.228C349.72 256.587 346.305 261.053 341.54 263.804L241.009 321.846C236.245 324.596 230.669 325.32 225.309 323.885C225.239 323.866 225.168 323.85 225.097 323.835L125.555 303.063C124.615 302.866 123.635 303.023 122.804 303.503L107.28 312.467L62.507 234.917L89.1086 219.559C97.7617 214.563 107.042 213.342 116.694 215.928L221.257 243.944C232.282 246.898 238.848 258.271 235.894 269.296C232.94 280.321 221.567 286.885 210.542 283.933L155.974 269.311C155.476 269.169 154.954 269.128 154.44 269.189C153.925 269.251 153.428 269.414 152.977 269.669C152.526 269.925 152.131 270.268 151.814 270.677C151.497 271.087 151.264 271.556 151.13 272.057C150.996 272.557 150.963 273.079 151.032 273.593C151.102 274.107 151.273 274.601 151.536 275.048C151.799 275.494 152.148 275.884 152.562 276.195C152.977 276.505 153.45 276.73 153.952 276.857L208.52 291.479C210.924 292.125 213.403 292.452 215.892 292.453C227.942 292.453 239.037 284.74 242.955 272.919L320.842 227.95C330.727 222.244 343.411 225.643 349.118 235.527C351.868 240.293 352.591 245.868 351.155 251.228ZM129.858 87.2417C130.418 88.8362 130.418 90.2581 129.858 91.8526L125.37 104.621C123.337 110.407 125.03 116.727 129.684 120.72L139.955 129.534C141.237 130.635 141.948 131.866 142.26 133.527L144.759 146.827C145.737 152.041 149.334 156.202 154.188 157.964L141.953 203.628C141.768 204.318 141.776 205.045 141.975 205.731C142.174 206.416 142.558 207.034 143.084 207.517C143.61 208 144.258 208.33 144.958 208.47C145.658 208.611 146.383 208.556 147.055 208.314L170.343 199.896L186.302 218.83C186.762 219.376 187.363 219.785 188.04 220.013C188.716 220.241 189.442 220.28 190.138 220.125C190.835 219.97 191.476 219.626 191.991 219.133C192.507 218.639 192.877 218.013 193.062 217.324L204.101 176.123L211.521 173.515C213.115 172.955 214.537 172.954 216.13 173.515L223.551 176.123L234.591 217.324C234.775 218.013 235.146 218.639 235.661 219.133C236.176 219.626 236.817 219.97 237.514 220.125C238.211 220.28 238.937 220.241 239.613 220.013C240.289 219.785 240.89 219.376 241.35 218.83L257.309 199.896L280.598 208.314C281.269 208.556 281.994 208.611 282.694 208.47C283.394 208.33 284.043 208 284.568 207.517C285.094 207.034 285.478 206.416 285.677 205.731C285.877 205.045 285.884 204.318 285.699 203.628L273.463 157.964C278.317 156.202 281.914 152.041 282.893 146.828L285.391 133.527C285.703 131.866 286.415 130.635 287.697 129.534L297.966 120.72C302.621 116.726 304.314 110.407 302.281 104.62L297.794 91.8519C297.234 90.2573 297.234 88.8355 297.794 87.2417L302.281 74.4737C304.315 68.687 302.621 62.3675 297.967 58.3737L287.697 49.5597C286.414 48.4589 285.703 47.2276 285.391 45.5667L282.893 32.2667C281.762 26.2386 277.135 21.612 271.107 20.48L257.805 17.9815C256.145 17.6698 254.913 16.9589 253.812 15.6761L245 5.40499C241.005 0.751081 234.687 -0.941887 228.9 1.09093L216.132 5.57842C214.537 6.13936 213.116 6.13936 211.522 5.57842L198.754 1.09093C192.966 -0.943449 186.648 0.751081 182.653 5.40499L173.84 15.6753C172.739 16.9581 171.508 17.6691 169.847 17.9808L156.546 20.4792C150.518 21.6112 145.891 26.2378 144.76 32.2651L142.262 45.5659C141.95 47.2269 141.239 48.4581 139.956 49.5589L129.686 58.373C125.032 62.3667 123.338 68.6862 125.372 74.4729L129.858 87.2417ZM187.452 208.073L174.562 192.779C174.047 192.168 173.357 191.73 172.586 191.523C171.814 191.317 170.998 191.351 170.247 191.623L151.436 198.422L161.836 159.608L169.845 161.113C171.506 161.424 172.738 162.136 173.838 163.418L182.652 173.689C185.525 177.035 189.599 178.851 193.813 178.851C194.309 178.851 194.806 178.817 195.305 178.767L187.452 208.073ZM257.407 191.623C256.656 191.351 255.84 191.317 255.068 191.523C254.296 191.73 253.607 192.168 253.092 192.779L240.202 208.073L232.35 178.769C237.08 179.25 241.791 177.428 245.002 173.687L253.815 163.417C254.916 162.134 256.147 161.423 257.808 161.111L265.818 159.607L276.219 198.421L257.407 191.623ZM134.773 64.3011L145.042 55.487C147.655 53.2448 149.303 50.3925 149.938 47.0073L152.437 33.7058C152.986 30.78 155.061 28.7058 157.987 28.1558L171.287 25.6573C174.671 25.0222 177.523 23.3753 179.767 20.762L188.58 10.4917C189.96 8.88389 191.793 8.03624 193.748 8.03624C194.54 8.03624 195.352 8.1753 196.162 8.46045L208.93 12.948C212.179 14.0894 215.473 14.0894 218.721 12.948L231.489 8.46045C234.298 7.47374 237.133 8.23233 239.071 10.4917L247.885 20.762C250.128 23.3745 252.98 25.0214 256.365 25.6573L269.666 28.1558C272.592 28.705 274.666 30.78 275.216 33.7058L277.715 47.0065C278.35 50.3901 279.997 53.2425 282.61 55.4862L292.88 64.3003C295.14 66.2394 295.899 69.073 294.912 71.8823L290.424 84.6503C289.283 87.8987 289.283 91.1933 290.424 94.4409L294.912 107.209C295.898 110.018 295.139 112.852 292.88 114.791L282.61 123.605C279.998 125.847 278.35 128.7 277.714 132.085L275.216 145.386C274.666 148.312 272.592 150.386 269.666 150.936L256.364 153.435C252.98 154.07 250.128 155.717 247.884 158.33L239.071 168.6C237.132 170.86 234.297 171.62 231.489 170.632L218.721 166.145C215.473 165.004 212.178 165.004 208.93 166.145L196.162 170.632C193.354 171.618 190.519 170.86 188.58 168.6L179.766 158.33C177.523 155.717 174.671 154.071 171.287 153.435L157.987 150.936C155.061 150.387 152.986 148.312 152.437 145.386L149.938 132.085C149.303 128.702 147.656 125.85 145.043 123.606L134.773 114.791C132.514 112.853 131.755 110.018 132.741 107.21L137.229 94.4417C138.37 91.1933 138.37 87.8987 137.229 84.6503L132.741 71.8823C131.755 69.0745 132.514 66.2401 134.773 64.3011ZM213.827 150.014C247.168 150.014 274.293 122.889 274.293 89.5472C274.293 56.2058 247.168 29.0808 213.827 29.0808C180.485 29.0808 153.36 56.2058 153.36 89.5472C153.36 122.889 180.485 150.014 213.827 150.014ZM213.827 36.8925C242.86 36.8925 266.48 60.5128 266.48 89.5464C266.48 118.58 242.86 142.2 213.827 142.2C184.793 142.2 161.173 118.58 161.173 89.5464C161.173 60.5128 184.793 36.8925 213.827 36.8925ZM188.322 122.285C188.22 122.989 188.312 123.708 188.589 124.363C188.865 125.019 189.316 125.587 189.891 126.005C190.467 126.423 191.146 126.677 191.855 126.737C192.564 126.798 193.277 126.663 193.915 126.349L213.827 116.529L233.738 126.349C234.377 126.664 235.089 126.799 235.798 126.739C236.508 126.679 237.187 126.426 237.763 126.007C238.339 125.589 238.79 125.021 239.066 124.365C239.342 123.708 239.434 122.989 239.331 122.285L236.145 100.314L251.637 84.412C252.134 83.9021 252.482 83.2663 252.643 82.5732C252.805 81.8801 252.774 81.1561 252.554 80.4792C252.334 79.8024 251.933 79.1985 251.395 78.7327C250.857 78.2669 250.202 77.957 249.501 77.8362L227.62 74.0769L217.283 54.4292C216.951 53.7993 216.454 53.2719 215.845 52.904C215.236 52.5361 214.538 52.3417 213.826 52.3417C213.114 52.3417 212.416 52.5361 211.807 52.904C211.197 53.2719 210.7 53.7993 210.369 54.4292L200.033 74.0769L178.152 77.8362C177.45 77.9567 176.795 78.2666 176.257 78.7323C175.718 79.1981 175.318 79.802 175.098 80.479C174.878 81.1559 174.847 81.88 175.009 82.5732C175.17 83.2664 175.518 83.9022 176.015 84.412L191.508 100.314L188.322 122.285ZM186.794 84.2784L203.255 81.4503C203.846 81.3487 204.405 81.1127 204.89 80.7605C205.375 80.4083 205.772 79.9493 206.052 79.419L213.827 64.6378L221.604 79.419C221.883 79.9492 222.28 80.4081 222.765 80.7603C223.25 81.1125 223.809 81.3485 224.399 81.4503L240.861 84.2784L229.205 96.2417C228.787 96.6711 228.474 97.1907 228.289 97.7606C228.103 98.3305 228.052 98.9354 228.137 99.5284L230.534 116.058L215.555 108.67C215.018 108.405 214.426 108.267 213.827 108.267C213.228 108.267 212.637 108.405 212.1 108.67L197.12 116.057L199.518 99.5284C199.604 98.9354 199.552 98.3305 199.367 97.7605C199.182 97.1906 198.868 96.6709 198.45 96.2417L186.794 84.2784Z" fill="#322E29"/>
</svg>
