<svg width="60" height="60" viewBox="0 0 60 60" fill="none" xmlns="http://www.w3.org/2000/svg">
<g clip-path="url(#clip0_45_5492)">
<path d="M53.8201 54.6429C53.8201 57.6016 51.4168 60 48.4522 60H11.5478C8.58317 60 6.17989 57.6015 6.17989 54.6429V5.35711C6.17989 2.39848 8.58317 8.00157e-08 11.5478 8.00157e-08H34.522C35.0513 -0.000105379 35.5753 0.104035 36.0643 0.306474C36.5532 0.508912 36.9975 0.805685 37.3718 1.17984L52.644 16.4541C53.0168 16.8267 53.3126 17.2691 53.5143 17.756C53.7161 18.243 53.82 18.7649 53.8201 19.292V54.6429Z" fill="#36332E"/>
<path d="M15.169 60H11.5473C8.58352 60 6.17989 57.6012 6.17989 54.6423V5.3577C6.17989 2.39883 8.58352 0 11.5473 0H15.169C12.2052 0 9.80157 2.39883 9.80157 5.3577V54.6422C9.80157 57.6012 12.2052 60 15.169 60ZM53.8201 19.2918V21.2523H39.8209C35.8225 21.2523 32.5702 17.9988 32.5702 14.0004V0H34.5223C35.5907 6.03202e-05 36.6155 0.424297 37.3713 1.17949L52.6441 16.4536C53.0169 16.8263 53.3126 17.2687 53.5144 17.7557C53.7162 18.2427 53.8201 18.7646 53.8201 19.2918Z" fill="#47433B"/>
<path d="M53.4592 17.6344H39.8209C37.8169 17.6344 36.192 16.0095 36.192 14.0042V0.367188C36.6312 0.565708 37.0308 0.842209 37.3715 1.18328L52.6443 16.4574C52.9847 16.7973 53.2608 17.1961 53.4592 17.6344ZM51.6096 52.036H8.39039C5.72344 52.036 3.56145 49.8739 3.56145 47.207V29.5812C3.56145 26.9143 5.72356 24.7523 8.39039 24.7523H51.6097C54.2767 24.7523 56.4387 26.9144 56.4387 29.5812V47.2069C56.4387 49.874 54.2766 52.036 51.6096 52.036Z" fill="url(#paint0_linear_45_5492)"/>
<path d="M11.4084 52.0337H8.39039C5.72356 52.0337 3.56145 49.8715 3.56145 47.2048V29.5789C3.56145 26.9121 5.72367 24.75 8.39039 24.75H11.4086C8.74172 24.75 6.57961 26.9122 6.57961 29.5789V47.2046C6.57949 49.8715 8.7416 52.0337 11.4084 52.0337Z" fill="url(#paint1_linear_45_5492)"/>
<path d="M45.4772 32.467C45.9772 32.467 46.3826 32.0618 46.3826 31.5616C46.3826 31.0615 45.9772 30.6563 45.4772 30.6563H39.9404C39.8215 30.6562 39.7038 30.6796 39.5939 30.7251C39.4841 30.7706 39.3843 30.8373 39.3002 30.9214C39.2161 31.0055 39.1494 31.1053 39.1039 31.2151C39.0584 31.325 39.035 31.4427 39.035 31.5616V45.2225C39.035 45.7227 39.4404 46.1279 39.9404 46.1279C40.4405 46.1279 40.8458 45.7227 40.8458 45.2225V39.1682H45.0374C45.5374 39.1682 45.9428 38.7629 45.9428 38.2628C45.9428 37.7626 45.5374 37.3574 45.0374 37.3574H40.8458V32.467H45.4772ZM30.3219 30.8093H26.5396C26.4205 30.8093 26.3026 30.8327 26.1927 30.8783C26.0827 30.9239 25.9828 30.9907 25.8987 31.075C25.8146 31.1592 25.748 31.2593 25.7026 31.3693C25.6572 31.4794 25.6339 31.5973 25.6342 31.7163V44.8525C25.6342 44.9271 25.6441 44.9992 25.6613 45.0686V45.0727C25.6621 45.3122 25.7579 45.5417 25.9276 45.7108C26.0973 45.8799 26.3271 45.9748 26.5666 45.9749H26.57C26.6842 45.9744 29.3759 45.964 30.4485 45.9455C32.2666 45.9136 33.8856 45.0897 35.0075 43.6254C36.0476 42.268 36.6204 40.4094 36.6204 38.3921C36.6204 33.8566 34.0893 30.8093 30.3219 30.8093ZM30.417 44.1347C29.7431 44.1464 28.38 44.155 27.4691 44.1596C27.4641 42.6663 27.4548 39.7209 27.4548 38.3773C27.4548 37.2541 27.4496 34.1664 27.4468 32.6202H30.322C33.6307 32.6202 34.8096 35.6017 34.8096 38.3921C34.8095 41.7281 33.0032 44.0895 30.417 44.1347Z" fill="#36332E"/>
<path d="M17.1487 30.6406H13.2854C12.4949 30.6406 12.4532 30.9849 12.4532 31.4725V45.3472C12.4532 45.5678 12.5408 45.7794 12.6968 45.9354C12.8528 46.0915 13.0644 46.1791 13.2851 46.1791C13.5057 46.1791 13.7173 46.0915 13.8733 45.9354C14.0293 45.7794 14.117 45.5678 14.117 45.3472V40.1478C15.0191 40.1427 16.4509 40.1353 17.1484 40.1353C19.8083 40.1353 21.9724 38.0056 21.9724 35.3879C21.9723 32.7703 19.8087 30.6406 17.1487 30.6406ZM17.1487 38.4716C16.4558 38.4716 15.045 38.4787 14.1395 38.484C14.1343 37.5566 14.127 36.0945 14.127 35.388C14.127 34.7943 14.1227 33.2675 14.1198 32.3045H17.1486C18.8617 32.3045 20.3088 33.7164 20.3088 35.388C20.3089 37.0596 18.8617 38.4716 17.1487 38.4716Z" fill="#36332E"/>
</g>
<defs>
<linearGradient id="paint0_linear_45_5492" x1="2.1443" y1="8.51733" x2="57.522" y2="10.8718" gradientUnits="userSpaceOnUse">
<stop stop-color="#C09E6C"/>
<stop offset="0.426246" stop-color="#FFEBCC"/>
<stop offset="1" stop-color="#BF936B"/>
</linearGradient>
<linearGradient id="paint1_linear_45_5492" x1="3.35114" y1="29.0537" x2="11.583" y2="29.152" gradientUnits="userSpaceOnUse">
<stop stop-color="#C09E6C"/>
<stop offset="0.426246" stop-color="#FFEBCC"/>
<stop offset="1" stop-color="#BF936B"/>
</linearGradient>
<clipPath id="clip0_45_5492">
<rect width="60" height="60" fill="white"/>
</clipPath>
</defs>
</svg>
