<svg width="40" height="40" viewBox="0 0 40 40" fill="none" xmlns="http://www.w3.org/2000/svg">
<path fill-rule="evenodd" clip-rule="evenodd" d="M24.2857 11C22.2226 11 20.4869 12.5534 20.0874 14.6H8.85714C8.62981 14.6 8.4118 14.6948 8.25105 14.8636C8.09031 15.0324 8 15.2613 8 15.5C8 15.7387 8.09031 15.9676 8.25105 16.1364C8.4118 16.3052 8.62981 16.4 8.85714 16.4H20.0874C20.4869 18.4475 22.2217 20 24.2857 20C26.3497 20 28.0846 18.4475 28.484 16.4H31.1429C31.3702 16.4 31.5882 16.3052 31.7489 16.1364C31.9097 15.9676 32 15.7387 32 15.5C32 15.2613 31.9097 15.0324 31.7489 14.8636C31.5882 14.6948 31.3702 14.6 31.1429 14.6H28.484C28.0846 12.5534 26.3497 11 24.2857 11ZM24.2857 12.8C25.7163 12.8 26.8571 13.9979 26.8571 15.5C26.8571 17.0021 25.7163 18.2 24.2857 18.2C22.8551 18.2 21.7143 17.0021 21.7143 15.5C21.7143 13.9979 22.8551 12.8 24.2857 12.8ZM15.7143 20C13.6511 20 11.9154 21.5534 11.516 23.6H8.85714C8.62981 23.6 8.4118 23.6948 8.25105 23.8636C8.09031 24.0324 8 24.2613 8 24.5C8 24.7387 8.09031 24.9676 8.25105 25.1364C8.4118 25.3052 8.62981 25.4 8.85714 25.4H11.516C11.9154 27.4475 13.6503 29 15.7143 29C17.7783 29 19.5131 27.4475 19.9126 25.4H31.1429C31.3702 25.4 31.5882 25.3052 31.7489 25.1364C31.9097 24.9676 32 24.7387 32 24.5C32 24.2613 31.9097 24.0324 31.7489 23.8636C31.5882 23.6948 31.3702 23.6 31.1429 23.6H19.9126C19.5131 21.5534 17.7783 20 15.7143 20ZM15.7143 21.8C17.1449 21.8 18.2857 22.9979 18.2857 24.5C18.2857 26.0021 17.1449 27.2 15.7143 27.2C14.2837 27.2 13.1429 26.0021 13.1429 24.5C13.1429 22.9979 14.2837 21.8 15.7143 21.8Z" fill="url(#paint0_linear_45_4274)"/>
<defs>
<linearGradient id="paint0_linear_45_4274" x1="7.35678" y1="13.8393" x2="32.4601" y2="15.2299" gradientUnits="userSpaceOnUse">
<stop stop-color="#C09E6C"/>
<stop offset="0.426246" stop-color="#FFEBCC"/>
<stop offset="1" stop-color="#BF936B"/>
</linearGradient>
</defs>
</svg>
