<svg width="24" height="24" viewBox="0 0 24 24" fill="none" xmlns="http://www.w3.org/2000/svg">
<path d="M21.5002 22.5924C21.224 22.5924 21.0002 22.3686 21.0002 22.0924V0.499999C21.0002 0.223857 20.7763 0 20.5002 0H8.84323C8.56709 0 8.34323 0.223858 8.34323 0.5V4.54629C8.34323 4.82243 8.11938 5.04629 7.84323 5.04629H3.49981C3.22367 5.04629 2.99981 5.27015 2.99981 5.54629V22.0924C2.99981 22.3685 2.77595 22.5924 2.49981 22.5924H0.5C0.223858 22.5924 0 22.8163 0 23.0924V23.5C0 23.7761 0.223858 24 0.5 24H23.5C23.7761 24 24 23.7761 24 23.5V23.0924C24 22.8163 23.7761 22.5924 23.5 22.5924L21.5002 22.5924ZM7.0778 19.6375C7.0778 19.9137 6.85394 20.1375 6.5778 20.1375H5.5C5.22386 20.1375 5 19.9137 5 19.6375V18.6336C5 18.3575 5.22386 18.1336 5.5 18.1336H6.5778C6.85394 18.1336 7.0778 18.3575 7.0778 18.6336V19.6375ZM7.0778 16.2259C7.0778 16.502 6.85394 16.7259 6.5778 16.7259H5.5C5.22386 16.7259 5 16.502 5 16.2259V15.2219C5 14.9458 5.22386 14.7219 5.5 14.7219H6.5778C6.85394 14.7219 7.0778 14.9458 7.0778 15.2219V16.2259ZM7.0778 12.8142C7.0778 13.0903 6.85394 13.3142 6.5778 13.3142H5.5C5.22386 13.3142 5 13.0903 5 12.8142V11.8103C5 11.5341 5.22386 11.3103 5.5 11.3103H6.5778C6.85394 11.3103 7.0778 11.5341 7.0778 11.8103V12.8142ZM7.0778 9.40251C7.0778 9.67865 6.85394 9.90251 6.5778 9.90251H5.5C5.22386 9.90251 5 9.67865 5 9.40251V7.39747C5 7.12133 5.22386 6.89747 5.5 6.89747H6.5778C6.85394 6.89747 7.0778 7.12133 7.0778 7.39747V9.40251ZM12.5622 20.3799C12.5622 20.6561 12.3383 20.8799 12.0622 20.8799H11C10.7239 20.8799 10.5 20.6561 10.5 20.3799V18.9401C10.5 18.6639 10.7239 18.4401 11 18.4401H12.0622C12.3383 18.4401 12.5622 18.6639 12.5622 18.9401V20.3799ZM12.5622 16.5324C12.5622 16.8085 12.3383 17.0324 12.0622 17.0324H11C10.7239 17.0324 10.5 16.8085 10.5 16.5324V15.0925C10.5 14.8164 10.7239 14.5925 11 14.5925H12.0622C12.3383 14.5925 12.5622 14.8164 12.5622 15.0925V16.5324ZM12.5622 12.6848C12.5622 12.961 12.3383 13.1848 12.0622 13.1848H11C10.7239 13.1848 10.5 12.961 10.5 12.6848V11.245C10.5 10.9689 10.7239 10.745 11 10.745H12.0622C12.3383 10.745 12.5622 10.9689 12.5622 11.245V12.6848ZM12.5622 8.83731C12.5622 9.11346 12.3383 9.33731 12.0622 9.33731H11C10.7239 9.33731 10.5 9.11346 10.5 8.83731V7.39747C10.5 7.12133 10.7239 6.89747 11 6.89747H12.0622C12.3383 6.89747 12.5622 7.12133 12.5622 7.39747V8.83731ZM12.5622 4.98983C12.5622 5.26597 12.3383 5.48983 12.0622 5.48983H11C10.7239 5.48983 10.5 5.26597 10.5 4.98983V3.54999C10.5 3.27384 10.7239 3.04999 11 3.04999H12.0622C12.3383 3.04999 12.5622 3.27384 12.5622 3.54999V4.98983ZM16 22.7962C16 23.0724 15.7761 23.2962 15.5 23.2962H14C13.7239 23.2962 13.5 23.0724 13.5 22.7962V18.9401C13.5 18.6639 13.7239 18.4401 14 18.4401H15.5C15.7761 18.4401 16 18.6639 16 18.9401V22.7962ZM16 16.5324C16 16.8085 15.7761 17.0324 15.5 17.0324H14C13.7239 17.0324 13.5 16.8085 13.5 16.5324V15.0925C13.5 14.8164 13.7239 14.5925 14 14.5925H15.5C15.7761 14.5925 16 14.8164 16 15.0925V16.5324ZM16 12.6848C16 12.961 15.7761 13.1848 15.5 13.1848H14C13.7239 13.1848 13.5 12.961 13.5 12.6848V11.245C13.5 10.9689 13.7239 10.745 14 10.745H15.5C15.7761 10.745 16 10.9689 16 11.245V12.6848ZM16 8.83731C16 9.11346 15.7761 9.33731 15.5 9.33731H14C13.7239 9.33731 13.5 9.11346 13.5 8.83731V7.39747C13.5 7.12133 13.7239 6.89747 14 6.89747H15.5C15.7761 6.89747 16 7.12133 16 7.39747V8.83731ZM16 4.98983C16 5.26597 15.7761 5.48983 15.5 5.48983H14C13.7239 5.48983 13.5 5.26597 13.5 4.98983V3.54999C13.5 3.27384 13.7239 3.04999 14 3.04999H15.5C15.7761 3.04999 16 3.27384 16 3.54999V4.98983ZM19 20.3411C19 20.6128 18.7829 20.8348 18.5113 20.8409L17.2925 20.8684C17.012 20.8747 16.7812 20.6491 16.7812 20.3685V18.9289C16.7812 18.6572 16.9983 18.4352 17.27 18.4291L18.4887 18.4016C18.7692 18.3953 19 18.6209 19 18.9015V20.3411ZM19 16.4935C19 16.7653 18.7829 16.9873 18.5113 16.9934L17.2925 17.0209C17.012 17.0272 16.7812 16.8015 16.7812 16.521V15.0814C16.7812 14.8096 16.9983 14.5877 17.27 14.5815L18.4887 14.5541C18.7692 14.5478 19 14.7734 19 15.0539V16.4935ZM19 12.646C19 12.9178 18.7829 13.1398 18.5113 13.1459L17.2925 13.1733C17.012 13.1796 16.7812 12.954 16.7812 12.6735V11.2339C16.7812 10.9621 16.9983 10.7401 17.27 10.734L18.4887 10.7065C18.7692 10.7002 19 10.9259 19 11.2064V12.646ZM19 8.79846C19 9.07022 18.7829 9.29222 18.5113 9.29834L17.2925 9.3258C17.012 9.33211 16.7812 9.10647 16.7812 8.82592V7.38634C16.7812 7.11458 16.9983 6.89258 17.27 6.88646L18.4887 6.859C18.7692 6.85269 19 7.07833 19 7.35888V8.79846ZM19 4.95098C19 5.22273 18.7829 5.44473 18.5113 5.45085L17.2925 5.47831C17.012 5.48463 16.7812 5.25899 16.7812 4.97844V3.53885C16.7812 3.26709 16.9983 3.0451 17.27 3.03898L18.4887 3.01152C18.7692 3.0052 19 3.23084 19 3.51139V4.95098Z" fill="currentColor"/>
<defs>
<linearGradient id="paint0_linear_560_90" x1="-0.643216" y1="3.78572" x2="24.4937" y2="4.83004" gradientUnits="userSpaceOnUse">
<stop stop-color="#C09E6C"/>
<stop offset="0.426246" stop-color="#FFEBCC"/>
<stop offset="1" stop-color="#BF936B"/>
</linearGradient>
</defs>
</svg>
