<svg width="40" height="40" viewBox="0 0 40 40" fill="none" xmlns="http://www.w3.org/2000/svg">
<path d="M18.7517 32.4137L18.7511 32.4132C16.6409 30.6054 13.7372 27.7124 11.7579 24.5518L11.7579 24.5517C10.3918 22.3712 9.5 20.1073 9.5 18.0037C9.5 13.3886 13.7397 9.5 19 9.5C24.2603 9.5 28.5 13.3886 28.5 18.0037C28.5 20.1073 27.6082 22.3705 26.2421 24.5518L26.2421 24.5518C24.2628 27.7124 21.3591 30.6054 19.2489 32.4132L19.2483 32.4137C19.189 32.4647 19.1006 32.5 19 32.5C18.8994 32.5 18.811 32.4647 18.7517 32.4137ZM18.6673 31.577L19 31.8736L19.3327 31.577C21.3201 29.805 23.8488 27.2009 25.6379 24.3451C26.8998 22.3313 27.8333 20.1391 27.8333 18.0037C27.8333 13.5633 23.7972 10.0006 19 10.0006C14.2028 10.0006 10.1667 13.5633 10.1667 18.0037C10.1667 20.139 11.1002 22.3312 12.3621 24.3451C14.1511 27.2008 16.6799 29.805 18.6673 31.577Z" stroke="currentColor"/>
<path d="M19 13C18.0111 13 17.0444 13.2932 16.2222 13.8427C15.3999 14.3921 14.759 15.173 14.3806 16.0866C14.0022 17.0002 13.9031 18.0055 14.0961 18.9755C14.289 19.9454 14.7652 20.8363 15.4645 21.5355C16.1637 22.2348 17.0546 22.711 18.0245 22.9039C18.9945 23.0969 19.9998 22.9978 20.9134 22.6194C21.827 22.241 22.6079 21.6001 23.1573 20.7779C23.7068 19.9556 24 18.9889 24 18C23.9996 16.6741 23.4726 15.4025 22.535 14.465C21.5975 13.5274 20.3259 13.0004 19 13ZM21.9633 17.38C21.9444 17.4053 21.9197 17.4257 21.8913 17.4396C21.8629 17.4535 21.8316 17.4605 21.8 17.46C21.758 17.4617 21.7168 17.4487 21.6833 17.4233L21.3067 17.1467V20.8C21.3065 20.853 21.2854 20.9038 21.2479 20.9412C21.2104 20.9787 21.1597 20.9998 21.1067 21H19.81C19.757 20.9998 19.7062 20.9787 19.6688 20.9412C19.6313 20.9038 19.6102 20.853 19.61 20.8V19.6733C19.6101 19.5123 19.5466 19.3578 19.4333 19.2433C19.3179 19.129 19.1624 19.0644 19 19.0633C18.8384 19.0639 18.6836 19.1284 18.5693 19.2427C18.4551 19.3569 18.3906 19.5117 18.39 19.6733V20.8C18.3898 20.853 18.3687 20.9038 18.3312 20.9412C18.2938 20.9787 18.243 20.9998 18.19 21H16.8933C16.8403 20.9998 16.7896 20.9787 16.7521 20.9412C16.7146 20.9038 16.6935 20.853 16.6933 20.8V17.1467L16.3167 17.4233C16.2955 17.439 16.2714 17.4504 16.2458 17.4567C16.2202 17.4631 16.1937 17.4642 16.1676 17.4602C16.1416 17.4562 16.1166 17.447 16.0941 17.4332C16.0716 17.4195 16.0521 17.4014 16.0367 17.38C16.0061 17.3365 15.9939 17.2828 16.0027 17.2304C16.0114 17.1781 16.0404 17.1312 16.0833 17.1L18.8833 15.04C18.9167 15.0141 18.9577 15 19 15C19.0423 15 19.0833 15.0141 19.1167 15.04L21.9167 17.1C21.9596 17.1312 21.9886 17.1781 21.9973 17.2304C22.0061 17.2828 21.9939 17.3365 21.9633 17.38Z" fill="currentColor"/>
<defs>
<linearGradient id="paint0_linear_985_268" x1="8.46399" y1="12.7857" x2="29.4225" y2="13.5113" gradientUnits="userSpaceOnUse">
<stop stop-color="#C09E6C"/>
<stop offset="0.426246" stop-color="#FFEBCC"/>
<stop offset="1" stop-color="#BF936B"/>
</linearGradient>
<linearGradient id="paint1_linear_985_268" x1="13.732" y1="14.5774" x2="24.2057" y2="15.0125" gradientUnits="userSpaceOnUse">
<stop stop-color="#C09E6C"/>
<stop offset="0.426246" stop-color="#FFEBCC"/>
<stop offset="1" stop-color="#BF936B"/>
</linearGradient>
</defs>
</svg>
