<svg width="72" height="86" viewBox="0 0 72 86" fill="none" xmlns="http://www.w3.org/2000/svg">
<path d="M10.7232 45.369H61.2769C63.6464 41.2086 65 36.4054 65 31.2888C65 15.432 52.0163 2.57764 36.0001 2.57764C19.9839 2.57764 7.00024 15.432 7.00024 31.2888C7.00013 36.4056 8.35364 41.2086 10.7232 45.369Z" fill="#545041"/>
<path d="M33.4895 40.4085C33.4895 40.4085 35.2471 41.1719 36.0001 42.2669C36.753 41.1719 38.5106 40.4085 38.5106 40.4085L45.5877 36.8448C44.9889 36.6616 44.3836 36.4999 43.7729 36.3602C42.5713 35.1705 42.2666 32.915 42.2118 31.3369C41.5847 32.0601 40.9266 32.665 40.2977 33.1484C39.0724 34.0905 37.5604 34.6021 36.0031 34.6021C34.4459 34.6021 32.9339 34.0905 31.7087 33.1484C31.0798 32.6649 30.4217 32.06 29.7945 31.3369C29.7397 32.915 29.435 35.1705 28.2334 36.3602C27.6214 36.5002 27.0147 36.6623 26.4147 36.846L33.4895 40.4085Z" fill="#FFAA7B"/>
<path d="M35.709 34.5955C34.2563 34.5354 32.8565 34.0306 31.7086 33.148C31.0797 32.6645 30.4215 32.0596 29.7944 31.3364C29.7467 32.709 29.5092 34.5935 28.6576 35.844C29.8688 38.2644 31.4382 40.2895 33.0255 39.2303C34.9829 37.924 35.5635 35.9824 35.709 34.5955Z" fill="#FC9460"/>
<path d="M33.7383 40.0368L30.5983 38.4556C29.2622 38.8579 27.4377 39.9082 27.3733 42.6499C26.471 42.8046 21.9277 43.794 21.9277 47.9965V56.3967C26.095 58.6916 30.8928 59.9999 35.9999 59.9999C36.1012 59.9999 36.2018 59.9971 36.3029 59.9962V42.5759C36.3029 41.1501 33.7383 40.0368 33.7383 40.0368Z" fill="#7E6DD1"/>
<path d="M22.1054 56.4932V47.9965C22.1054 43.4563 27.5492 42.8006 27.5492 42.8006C27.5492 39.9182 29.5042 38.9162 30.8213 38.5678L27.0369 36.6621C18.9339 39.2781 15.0638 40.3242 13.0459 41.7503C15.1467 43.1698 18.4505 46.1184 18.4505 50.6298V54.146C19.6077 55.0179 20.8294 55.8025 22.1054 56.4932Z" fill="#7255CE"/>
<path d="M44.9632 36.6621L38.2615 40.0368C38.2615 40.0368 35.6969 41.15 35.6969 42.5759V59.9961C35.798 59.9972 35.8986 59.9999 35.9999 59.9999C37.3602 59.9999 38.6982 59.9057 40.0086 59.7262L40.0078 59.7257L48.2676 57.3096V57.3098C50.1369 56.4443 51.9076 55.3836 53.5494 54.1459V50.6298C53.5494 46.1184 56.8534 43.1699 58.954 41.7503C56.9362 40.3242 53.0663 39.2781 44.9632 36.6621Z" fill="#9589E8"/>
<path d="M42.891 33.6475C42.8594 33.6302 42.8241 33.6206 42.788 33.6193C42.7519 33.618 42.716 33.6252 42.6832 33.6402C42.6504 33.6553 42.6217 33.6777 42.5993 33.7058C42.5769 33.7339 42.5615 33.7668 42.5544 33.8018C42.3519 34.7839 41.4731 37.8775 38.2099 39.7136C37.8885 39.8944 37.8116 40.3189 38.0546 40.5946L41.352 44.3337C42.0367 45.1144 43.2972 44.9739 43.7913 44.0631C44.6268 42.5233 45.7907 40.1795 46.6521 37.6598C46.8064 37.2086 46.6967 36.7097 46.3716 36.3586C45.3675 35.2742 44.192 34.3585 42.891 33.6475Z" fill="#B5B0F7"/>
<path d="M33.792 39.7139C33.0069 39.2721 32.3609 38.7571 31.828 38.2168C31.034 38.2835 27.5806 38.7879 27.3829 42.4688C27.6491 43.0053 27.925 43.5369 28.2105 44.0635C28.7047 44.9743 29.9652 45.1148 30.6498 44.3341L33.9472 40.595C34.1903 40.3191 34.1132 39.8946 33.792 39.7139Z" fill="#9589E8"/>
<path d="M29.4474 33.8018C29.4403 33.7668 29.4249 33.7339 29.4025 33.7058C29.3802 33.6777 29.3514 33.6553 29.3186 33.6402C29.2859 33.6252 29.25 33.618 29.2138 33.6193C29.1777 33.6206 29.1424 33.6302 29.1108 33.6475C27.8099 34.3585 26.6344 35.2741 25.6303 36.3586C25.3052 36.7097 25.1955 37.2086 25.3497 37.6598C26.001 39.5647 26.8248 41.3682 27.5491 42.8006C27.5492 38.4552 31.9942 38.3819 31.9942 38.3819L31.9943 38.3815C30.1811 36.6393 29.6062 34.5718 29.4474 33.8018Z" fill="#7E6DD1"/>
<path d="M53.3126 54.3236C56.5685 51.9207 59.2812 48.8706 61.2766 45.3689C61.0534 44.7115 60.8117 44.1082 60.5493 43.5784C60.1712 42.8151 59.6465 42.2165 58.8372 41.6694C56.7449 43.0565 53.3126 46.0322 53.3126 50.6297V54.3236Z" fill="#B5B0F7"/>
<path d="M13.1625 41.6694C12.3533 42.2166 11.8284 42.8151 11.4505 43.5784C11.1882 44.1082 10.9465 44.7115 10.7231 45.3689C12.7186 48.8706 15.4313 51.9207 18.6872 54.3236V50.6297C18.6873 46.0322 15.2549 43.0565 13.1625 41.6694Z" fill="#7E6DD1"/>
<path d="M46.8473 49.292H41.3432C40.562 49.292 39.9229 49.9248 39.9229 50.6982V59.2529C39.9229 59.4189 39.9537 59.5777 40.0078 59.7258C42.8679 59.335 45.6523 58.5205 48.2676 57.3097V50.6982C48.2676 49.9248 47.6285 49.292 46.8473 49.292Z" fill="#B5B0F7"/>
<path d="M55.8247 10.3364C53.0716 12.3513 49.6459 15.7481 51.0982 20.004C53.3471 26.5951 43.1676 30.7517 54.5308 35.5288C59.0741 37.439 61.714 39.4319 63.2478 41.1363C64.3808 38.0647 65 34.7485 65 31.2886C64.9999 23.0233 61.4708 15.5749 55.8247 10.3364ZM16.1753 10.3364C18.9284 12.3513 22.3541 15.7481 20.9018 20.004C18.6529 26.5951 28.8324 30.7517 17.4692 35.5288C12.9259 37.439 10.2858 39.4319 8.75217 41.1363C7.61917 38.0647 7 34.7485 7 31.2886C7.00012 23.0233 10.5292 15.5749 16.1753 10.3364Z" fill="#615C4D"/>
<path d="M25.2136 18.4542H46.9066C46.9451 16.9067 47.2058 12.8108 48.8393 9.89307C48.9517 9.69271 49.0197 9.47089 49.0386 9.24244C49.0575 9.014 49.0269 8.78419 48.9489 8.56838C48.3561 6.93221 46.5856 3.10721 42.7243 2.08698C42.5186 2.0326 42.4643 1.76917 42.6316 1.63897L43.2103 1.18885C43.4726 0.984712 43.3719 0.570103 43.0442 0.507642C40.1953 -0.0363424 30.7337 -1.33806 27.7947 4.64518C27.6193 5.00225 27.2887 5.25936 26.9004 5.35885C26.0452 5.57799 24.5071 6.23846 23.5045 8.21764C23.4071 8.40916 23.3491 8.61793 23.3338 8.83183C23.3185 9.04573 23.3463 9.26051 23.4155 9.4637C23.9027 10.8853 25.0898 14.7026 25.2136 18.4542Z" fill="#56415E"/>
<path d="M34.9202 8.99656C31.4554 3.76895 37.516 0.00195312 37.516 0.00195312C33.8405 0.0490625 29.5946 0.980937 27.7947 4.64504C27.6193 5.00211 27.2887 5.25922 26.9004 5.35871C26.0452 5.57785 24.5071 6.23832 23.5045 8.2175C23.4071 8.40902 23.3491 8.61779 23.3338 8.83169C23.3185 9.04559 23.3463 9.26037 23.4155 9.46356C23.9027 10.8852 25.0898 14.7024 25.2136 18.4541H30.2631C33.459 15.8911 36.9791 12.103 34.9202 8.99656Z" fill="#45304C"/>
<path d="M47.7487 17.8283C47.263 17.3877 46.1773 17.611 45.759 17.8808C45.8506 18.4458 45.8558 19.0237 45.7766 19.5944L45.283 23.1537C45.283 23.4405 45.2739 23.722 45.2571 23.9986C46.4607 24.358 47.177 23.2882 47.2777 22.554C47.3209 22.2379 47.3921 21.9262 47.4903 21.6225C47.8105 20.6327 48.9655 18.9323 47.7487 17.8283Z" fill="#FFBB99"/>
<path d="M24.2515 17.8283C24.7372 17.3877 25.823 17.611 26.2413 17.8808C26.15 18.448 26.1441 19.0255 26.2236 19.5944L26.7172 23.1537C26.7172 23.4405 26.7263 23.722 26.7431 23.9986C25.5395 24.358 24.8232 23.2882 24.7225 22.554C24.6793 22.2379 24.6082 21.9262 24.5099 21.6225C24.1898 20.6327 23.0347 18.9323 24.2515 17.8283Z" fill="#EEA784"/>
<path d="M45.5801 16.7811C45.4689 16.4941 45.3289 16.2034 45.1524 15.9293C44.8535 15.465 44.722 14.9159 44.7622 14.3684C44.8773 12.7936 44.8155 9.71359 42.7275 8.78336C40.9535 7.99305 38.7773 8.45066 37.3896 8.90746C36.5215 9.19275 35.5853 9.20352 34.7108 8.93828C33.1296 10.1397 33.0925 12.8447 33.1994 14.2851C33.2412 14.8364 33.1021 15.3864 32.8028 15.8532C32.6297 16.1222 32.4911 16.407 32.3803 16.6888C32.0208 17.6031 31.9159 18.5948 32.0506 19.5658L32.5508 23.1729C32.5508 28.3587 35.3469 31.8835 37.7252 33.7121C38.0763 33.982 38.4518 34.2141 38.844 34.4123C39.3608 34.1858 39.8478 33.8979 40.2943 33.5549C42.6416 31.7504 45.4011 28.2715 45.4011 23.1535L45.8947 19.5943C46.0264 18.6454 45.9266 17.6764 45.5801 16.7811Z" fill="#F1BCA2"/>
<path d="M37.7423 33.555C35.395 31.7505 32.6355 28.2716 32.6355 23.1536L32.1418 19.5936C32.0089 18.6353 32.1124 17.6566 32.4671 16.7542C32.5765 16.476 32.7132 16.195 32.8842 15.9295C33.1796 15.4688 33.3169 14.926 33.2757 14.3819C33.1668 12.9152 33.2091 10.1199 34.9202 8.99652C34.8159 8.97063 34.7126 8.94093 34.6105 8.90746C33.2226 8.45066 31.0466 7.99305 29.2726 8.78336C27.1785 9.71617 27.1224 12.8112 27.239 14.3819C27.2803 14.926 27.143 15.4688 26.8476 15.9295C26.6766 16.195 26.5398 16.476 26.4304 16.7542C26.0757 17.6566 25.9722 18.6353 26.1052 19.5936L26.5989 23.1536C26.5989 28.2716 29.3585 31.7504 31.7057 33.555C32.9309 34.497 34.4429 35.0086 36.0001 35.0086C37.0445 35.0085 38.0756 34.7776 39.0184 34.3328C38.566 34.1197 38.1382 33.859 37.7423 33.555Z" fill="#EFA176"/>
<g clip-path="url(#clip0_25_1239)">
<path d="M34.92 64.8679C35.03 64.6791 35.1877 64.5224 35.3772 64.4135C35.5667 64.3046 35.7814 64.2473 36 64.2473C36.2185 64.2473 36.4333 64.3046 36.6228 64.4135C36.8123 64.5224 36.9699 64.6791 37.08 64.8679L39.875 69.6659L45.303 70.8419C45.5165 70.8883 45.7141 70.9899 45.8761 71.1365C46.0382 71.2831 46.159 71.4696 46.2264 71.6774C46.2939 71.8852 46.3058 72.1071 46.2608 72.3209C46.2158 72.5347 46.1155 72.733 45.97 72.8959L42.27 77.0369L42.83 82.562C42.8521 82.7795 42.8167 82.9991 42.7274 83.1987C42.6381 83.3983 42.498 83.571 42.3211 83.6995C42.1442 83.828 41.9367 83.9079 41.7192 83.9312C41.5018 83.9544 41.2821 83.9202 41.082 83.832L36 81.5919L30.918 83.832C30.7179 83.9202 30.4982 83.9544 30.2807 83.9312C30.0633 83.9079 29.8558 83.828 29.6789 83.6995C29.5019 83.571 29.3618 83.3983 29.2726 83.1987C29.1833 82.9991 29.1479 82.7795 29.17 82.562L29.73 77.0369L26.03 72.8969C25.8842 72.734 25.7837 72.5356 25.7386 72.3217C25.6935 72.1077 25.7052 71.8857 25.7727 71.6777C25.8402 71.4697 25.9611 71.2831 26.1233 71.1364C26.2855 70.9898 26.4833 70.8882 26.697 70.8419L32.125 69.6659L34.92 64.8679Z" fill="url(#paint0_linear_25_1239)"/>
</g>
<g clip-path="url(#clip1_25_1239)">
<path d="M10.92 57.8679C11.03 57.6791 11.1877 57.5224 11.3772 57.4135C11.5667 57.3046 11.7814 57.2473 12 57.2473C12.2185 57.2473 12.4333 57.3046 12.6228 57.4135C12.8123 57.5224 12.9699 57.6791 13.08 57.8679L15.875 62.6659L21.303 63.8419C21.5165 63.8883 21.7141 63.9899 21.8761 64.1365C22.0382 64.2831 22.159 64.4696 22.2264 64.6774C22.2939 64.8852 22.3058 65.1071 22.2608 65.3209C22.2158 65.5347 22.1155 65.733 21.97 65.8959L18.27 70.0369L18.83 75.562C18.8521 75.7795 18.8167 75.9991 18.7274 76.1987C18.6381 76.3983 18.498 76.571 18.3211 76.6995C18.1442 76.828 17.9367 76.9079 17.7192 76.9312C17.5018 76.9544 17.2821 76.9202 17.082 76.832L12 74.5919L6.91799 76.832C6.7179 76.9202 6.49818 76.9544 6.28074 76.9312C6.0633 76.9079 5.85577 76.828 5.67886 76.6995C5.50195 76.571 5.36185 76.3983 5.27255 76.1987C5.18326 75.9991 5.14789 75.7795 5.16999 75.562L5.72999 70.0369L2.02999 65.8969C1.88421 65.734 1.78374 65.5356 1.7386 65.3217C1.69346 65.1077 1.70523 64.8857 1.77273 64.6777C1.84023 64.4697 1.96111 64.2831 2.12329 64.1364C2.28547 63.9898 2.48329 63.8882 2.69699 63.8419L8.12499 62.6659L10.92 57.8679Z" fill="url(#paint1_linear_25_1239)"/>
</g>
<g clip-path="url(#clip2_25_1239)">
<path d="M59.1 59.39C59.1917 59.2326 59.3231 59.1021 59.481 59.0113C59.6389 58.9206 59.8178 58.8728 60 58.8728C60.1821 58.8728 60.3611 58.9206 60.519 59.0113C60.6769 59.1021 60.8083 59.2326 60.9 59.39L63.2292 63.3883L67.7525 64.3683C67.9304 64.407 68.0951 64.4916 68.2301 64.6138C68.3651 64.7359 68.4658 64.8913 68.522 65.0645C68.5783 65.2377 68.5881 65.4226 68.5506 65.6008C68.5131 65.7789 68.4296 65.9442 68.3083 66.08L65.225 69.5308L65.6917 74.135C65.7101 74.3163 65.6806 74.4992 65.6062 74.6656C65.5318 74.8319 65.415 74.9758 65.2676 75.083C65.1202 75.1901 64.9472 75.2566 64.766 75.276C64.5848 75.2954 64.4017 75.2669 64.235 75.1933L60 73.3267L55.765 75.1933C55.5983 75.2669 55.4151 75.2954 55.2339 75.276C55.0528 75.2566 54.8798 75.1901 54.7324 75.083C54.585 74.9758 54.4682 74.8319 54.3938 74.6656C54.3194 74.4992 54.2899 74.3163 54.3083 74.135L54.775 69.5308L51.6917 66.0808C51.5702 65.945 51.4865 65.7797 51.4488 65.6014C51.4112 65.4231 51.421 65.2381 51.4773 65.0648C51.5335 64.8915 51.6343 64.736 51.7694 64.6137C51.9046 64.4915 52.0694 64.4069 52.2475 64.3683L56.7708 63.3883L59.1 59.39Z" fill="#36332E"/>
</g>
<defs>
<linearGradient id="paint0_linear_25_1239" x1="25.1602" y1="67.3533" x2="46.7074" y2="68.2887" gradientUnits="userSpaceOnUse">
<stop stop-color="#C09E6C"/>
<stop offset="0.426246" stop-color="#FFEBCC"/>
<stop offset="1" stop-color="#BF936B"/>
</linearGradient>
<linearGradient id="paint1_linear_25_1239" x1="1.16022" y1="60.3533" x2="22.7074" y2="61.2887" gradientUnits="userSpaceOnUse">
<stop stop-color="#C09E6C"/>
<stop offset="0.426246" stop-color="#FFEBCC"/>
<stop offset="1" stop-color="#BF936B"/>
</linearGradient>
<clipPath id="clip0_25_1239">
<rect width="24" height="24" fill="white" transform="translate(24 62)"/>
</clipPath>
<clipPath id="clip1_25_1239">
<rect width="24" height="24" fill="white" transform="translate(0 55)"/>
</clipPath>
<clipPath id="clip2_25_1239">
<rect width="20" height="20" fill="white" transform="translate(50 57)"/>
</clipPath>
</defs>
</svg>
