<svg width="72" height="86" viewBox="0 0 72 86" fill="none" xmlns="http://www.w3.org/2000/svg">
<path d="M12.2943 47.8292H59.7056C63.0402 43.1535 64.9999 37.4479 64.9999 31.2888C64.9999 15.432 52.0162 2.57764 35.9999 2.57764C19.9837 2.57764 7 15.432 7 31.2888C7 37.4479 8.95967 43.1535 12.2943 47.8292Z" fill="#545041"/>
<path d="M59.1554 46.5066C57.3519 42.9355 54.1866 41.9384 52.7444 41.6641C52.7444 41.6641 49.0557 40.9975 45.7966 39.6855C45.6964 40.0028 45.4779 40.2843 45.1573 40.4554C42.934 41.6422 39.935 42.6159 36.0788 42.6159C35.3278 42.616 34.5774 42.5771 33.8305 42.4993C33.849 42.5405 33.8665 42.5814 33.886 42.6229C33.0923 42.7222 30.5501 43.1047 28.0369 44.1722C24.0099 45.8822 21.8813 48.5613 21.8813 51.9199V56.3719C26.0596 58.6823 30.8741 59.9998 35.9999 59.9998C45.7951 59.9998 54.4552 55.1912 59.7056 47.829C59.5399 47.3496 59.3573 46.9062 59.1554 46.5066Z" fill="#72AAFC"/>
<path d="M26.3418 39.6294C23.0497 40.9785 19.2555 41.6642 19.2555 41.6642C17.8133 41.9385 14.648 42.9356 12.8445 46.5067C12.6427 46.9063 12.4601 47.3497 12.2943 47.8291C14.8361 51.3933 18.177 54.3588 22.0589 56.4702V51.92C22.0589 43.8913 34.1548 42.7691 34.1548 42.7691C34.1133 42.6871 34.0733 42.6044 34.0347 42.5211C31.1436 42.2494 28.8127 41.4231 26.9985 40.4542C26.8378 40.3685 26.6966 40.2512 26.5836 40.1093C26.4707 39.9674 26.3883 39.8041 26.3418 39.6294Z" fill="#548BED"/>
<path d="M45.9733 38.6857L43.7004 35.0714C43.3806 34.5628 42.7658 34.3213 42.1789 34.4675C40.405 34.9094 38.3229 35.243 36.0788 35.243C35.8449 35.243 35.6133 35.2385 35.3831 35.2315V37.1542C35.04 37.3225 33.9952 37.92 33.5357 39.1446C33.1571 40.154 33.275 41.3232 33.886 42.6231C33.7639 42.6384 33.6002 42.6604 33.4021 42.6906C34.2902 42.7977 35.184 42.8511 36.0787 42.8506C40.0626 42.8506 43.1607 41.8448 45.4576 40.6186C46.1607 40.2434 46.3954 39.357 45.9733 38.6857Z" fill="#548BED"/>
<path d="M29.9773 34.4661C29.3903 34.3197 28.7754 34.5613 28.4555 35.07L26.1829 38.684C25.7608 39.3553 25.9954 40.2415 26.6983 40.6169C28.6111 41.6384 31.0816 42.5049 34.154 42.7671C32.0874 38.6943 35.5607 37.2661 35.5607 37.2661V35.2361C33.5142 35.1897 31.6146 34.8744 29.9773 34.4661Z" fill="#3E7FDD"/>
<path d="M46.4948 33.1191C45.6959 30.3491 45.3648 28.1866 45.293 26.5156C44.6863 28.6832 43.8933 30.6025 42.9275 32.2388C42.374 33.1762 41.6822 34.0264 40.8751 34.7615C39.675 41.6933 41.9191 46.915 43.6851 49.7686C44.0573 50.3698 45.049 50.1177 45.0394 49.4233C44.9599 43.6767 48.6459 40.578 46.4948 33.1191Z" fill="#45304C"/>
<path d="M36.0775 4.61484C37.9389 4.61484 39.518 4.96957 40.8473 5.51613C40.8848 5.2759 40.9045 5.02969 40.9045 4.77902C40.9044 2.13961 38.7433 0 36.0775 0C33.4116 0 31.2504 2.13961 31.2504 4.77902C31.2504 5.02969 31.2701 5.27578 31.3077 5.51613C32.6369 4.96957 34.216 4.61484 36.0775 4.61484Z" fill="#56415E"/>
<path d="M36.0775 3.60234C34.1803 1.72406 36.0775 0 36.0775 0C33.4116 0 31.2504 2.13961 31.2504 4.77902C31.2504 5.02969 31.2701 5.27578 31.3077 5.51613C32.6369 4.96957 34.216 4.61496 36.0775 4.61496V3.60234Z" fill="#45304C"/>
<path d="M30.4643 6.21078C31.9537 5.45 33.8057 4.92207 36.0775 4.92207C38.3493 4.92207 40.2014 5.45 41.6908 6.2109C41.9532 6.34539 42.2093 6.49155 42.4583 6.64895C40.9633 4.79316 38.6615 3.60254 36.0775 3.60254C33.4936 3.60254 31.1917 4.79305 29.6968 6.64883C29.9458 6.49141 30.2019 6.34524 30.4643 6.21078Z" fill="#D3DCFB"/>
<path d="M26.6442 19.551C26.7793 19.1135 26.964 18.7348 27.2139 18.456C27.4388 18.2051 27.5799 17.8947 27.59 17.5626C27.6484 15.6225 28.4016 9.33705 35.6346 12.0822C35.9188 12.19 36.236 12.19 36.5202 12.0822C43.7532 9.33705 44.5064 15.6225 44.5648 17.5626C44.5749 17.8947 44.716 18.2051 44.9409 18.456C45.1908 18.7348 45.3755 19.1135 45.5106 19.551V19.5509C45.877 19.309 46.446 19.1422 46.9602 19.1542L46.9603 19.1527V14.444C46.9603 10.8757 44.9512 7.56881 41.6907 5.90346C40.2013 5.14268 38.3492 4.61475 36.0774 4.61475C33.8056 4.61475 31.9535 5.14268 30.4641 5.90346C27.2036 7.56881 25.1945 10.8757 25.1945 14.444V19.1527L25.1946 19.1542C25.7088 19.1424 26.2777 19.3091 26.6442 19.551Z" fill="#56415E"/>
<path d="M36.0774 4.61475C33.8056 4.61475 31.9535 5.14268 30.4641 5.90346C27.2036 7.56881 25.1945 10.8757 25.1945 14.444V19.1527L25.1946 19.1542C25.7089 19.1422 26.2777 19.3091 26.6442 19.5509C26.7793 19.1134 26.964 18.7347 27.2139 18.4559C27.4388 18.205 27.5799 17.8946 27.59 17.5624C27.6474 15.6597 28.3738 9.57764 35.2261 11.935C35.1975 11.8979 35.17 11.8607 35.139 11.8241C31.9239 8.03545 36.0774 4.61475 36.0774 4.61475Z" fill="#45304C"/>
<path d="M26.5547 25.1452C26.5547 25.1452 25.9644 21.4467 26.6443 19.244C26.0274 18.8369 24.8355 18.6382 24.2996 19.1569C23.2021 20.2191 24.0063 21.8232 24.3911 22.8364C24.5071 23.1393 24.5839 23.4555 24.6199 23.7774C24.6948 24.4624 25.0699 25.4649 26.6252 25.4414C26.6017 25.3427 26.5776 25.2455 26.5547 25.1452Z" fill="#EEA784"/>
<path d="M47.8553 19.1569C47.3193 18.6382 46.1274 18.8369 45.5106 19.244C46.1905 21.4467 45.6002 25.1452 45.6002 25.1452C45.5773 25.2455 45.5532 25.3427 45.5297 25.4414C47.0851 25.465 47.4602 24.4625 47.5352 23.7774C47.5696 23.4622 47.6458 23.1475 47.764 22.8364C48.1486 21.8232 48.9528 20.2191 47.8553 19.1569Z" fill="#FFBB99"/>
<path d="M44.9989 18.098C44.7748 17.848 44.6515 17.5558 44.6424 17.2532C44.6077 16.1015 44.3139 13.2827 42.3407 11.9818C40.941 11.0591 38.9734 11.0687 36.4925 12.0106C36.2253 12.1122 35.9295 12.1122 35.6623 12.0106C35.3727 11.9005 35.0794 11.8002 34.7829 11.7098C32.7745 13.0432 32.4748 15.9179 32.4394 17.0936C32.43 17.4032 32.3041 17.7018 32.0747 17.9575C30.8111 19.3673 31.0879 23.486 31.3826 25.1816C32.0355 28.0346 32.9813 30.5224 34.1931 32.5759C35.1954 34.2741 36.6197 35.6626 38.3533 36.6511C40.2788 35.6752 41.8513 34.2159 42.9273 32.3925C44.1122 30.385 45.037 27.9523 45.6768 25.1571C45.9537 23.4141 46.2487 19.4925 44.9989 18.098Z" fill="#F1BCA2"/>
<path d="M34.2909 32.3927C33.1059 30.3847 32.1811 27.9521 31.5427 25.1622C31.2544 23.5041 30.9839 19.4768 32.2194 18.0982C32.4437 17.8481 32.5669 17.5561 32.576 17.2534C32.6107 16.1016 32.9045 13.2826 34.8777 11.9818C34.9626 11.9259 35.0497 11.8734 35.1389 11.8244C32.9037 11.0737 31.1136 11.1253 29.8141 11.9818C27.8408 13.2827 27.5471 16.1016 27.5125 17.2534C27.5033 17.5561 27.3801 17.8481 27.1558 18.0982C25.9202 19.4766 26.1908 23.5041 26.4791 25.1622C27.1176 27.9521 28.0424 30.3847 29.2273 32.3927C30.4304 34.4312 32.2524 36.0166 34.4962 36.9777C34.9956 37.1906 35.5336 37.3004 36.0773 37.3004C36.621 37.3004 37.1591 37.1906 37.6585 36.9777C37.9821 36.8385 38.2993 36.6849 38.609 36.5176C36.8002 35.5441 35.3191 34.1346 34.2909 32.3927Z" fill="#EFA176"/>
<path d="M53.77 8.59961C51.8732 10.1314 49.9638 12.5896 51.0891 15.8504C53.0976 21.6702 47.8458 29.6187 53.7466 35.4607C57.2191 38.8987 61.3699 38.7346 64.1987 38.0175C64.7223 35.8593 65 33.6063 65 31.2889C64.9999 22.0616 60.6023 13.8522 53.77 8.59961ZM18.2299 8.59961C20.1267 10.1314 22.036 12.5896 20.9107 15.8504C18.9023 21.6702 24.1541 29.6187 18.2533 35.4607C14.7808 38.8987 10.6299 38.7346 7.80122 38.0175C7.27757 35.8593 7 33.6063 7 31.2889C7 22.0616 11.3975 13.8522 18.2299 8.59961Z" fill="#615C4D"/>
<path d="M55.6627 52.3904C55.079 50.0778 53.6315 48.7365 52.458 48.002C51.7181 47.5388 50.7533 48.0601 50.7533 48.9268V56.0108C52.5138 54.9782 54.1593 53.7647 55.6627 52.3904Z" fill="#548BED"/>
<path d="M43.2069 37.3001C43.2069 40.4364 43.7295 43.495 45.9827 43.8741C46.8673 40.8507 47.8645 37.869 46.4946 33.1192C46.4616 33.0047 46.4306 32.8928 46.3991 32.7803C44.9348 33.5575 43.2069 34.9683 43.2069 37.3001Z" fill="#56415E"/>
<g clip-path="url(#clip0_25_1014)">
<path d="M34.92 64.8679C35.03 64.6791 35.1877 64.5224 35.3772 64.4135C35.5667 64.3046 35.7814 64.2473 36 64.2473C36.2185 64.2473 36.4333 64.3046 36.6228 64.4135C36.8123 64.5224 36.9699 64.6791 37.08 64.8679L39.875 69.6659L45.303 70.8419C45.5165 70.8883 45.7141 70.9899 45.8761 71.1365C46.0382 71.2831 46.159 71.4696 46.2264 71.6774C46.2939 71.8852 46.3058 72.1071 46.2608 72.3209C46.2158 72.5347 46.1155 72.733 45.97 72.8959L42.27 77.0369L42.83 82.562C42.8521 82.7795 42.8167 82.9991 42.7274 83.1987C42.6381 83.3983 42.498 83.571 42.3211 83.6995C42.1442 83.828 41.9367 83.9079 41.7192 83.9312C41.5018 83.9544 41.2821 83.9202 41.082 83.832L36 81.5919L30.918 83.832C30.7179 83.9202 30.4982 83.9544 30.2807 83.9312C30.0633 83.9079 29.8558 83.828 29.6789 83.6995C29.5019 83.571 29.3618 83.3983 29.2726 83.1987C29.1833 82.9991 29.1479 82.7795 29.17 82.562L29.73 77.0369L26.03 72.8969C25.8842 72.734 25.7837 72.5356 25.7386 72.3217C25.6935 72.1077 25.7052 71.8857 25.7727 71.6777C25.8402 71.4697 25.9611 71.2831 26.1233 71.1364C26.2855 70.9898 26.4833 70.8882 26.697 70.8419L32.125 69.6659L34.92 64.8679Z" fill="url(#paint0_linear_25_1014)"/>
</g>
<g clip-path="url(#clip1_25_1014)">
<path d="M10.92 57.8679C11.03 57.6791 11.1877 57.5224 11.3772 57.4135C11.5667 57.3046 11.7814 57.2473 12 57.2473C12.2185 57.2473 12.4333 57.3046 12.6228 57.4135C12.8123 57.5224 12.9699 57.6791 13.08 57.8679L15.875 62.6659L21.303 63.8419C21.5165 63.8883 21.7141 63.9899 21.8761 64.1365C22.0382 64.2831 22.159 64.4696 22.2264 64.6774C22.2939 64.8852 22.3058 65.1071 22.2608 65.3209C22.2158 65.5347 22.1155 65.733 21.97 65.8959L18.27 70.0369L18.83 75.562C18.8521 75.7795 18.8167 75.9991 18.7274 76.1987C18.6381 76.3983 18.498 76.571 18.3211 76.6995C18.1442 76.828 17.9367 76.9079 17.7192 76.9312C17.5018 76.9544 17.2821 76.9202 17.082 76.832L12 74.5919L6.91799 76.832C6.7179 76.9202 6.49818 76.9544 6.28074 76.9312C6.0633 76.9079 5.85577 76.828 5.67886 76.6995C5.50195 76.571 5.36185 76.3983 5.27255 76.1987C5.18326 75.9991 5.14789 75.7795 5.16999 75.562L5.72999 70.0369L2.02999 65.8969C1.88421 65.734 1.78374 65.5356 1.7386 65.3217C1.69346 65.1077 1.70523 64.8857 1.77273 64.6777C1.84023 64.4697 1.96111 64.2831 2.12329 64.1364C2.28547 63.9898 2.48329 63.8882 2.69699 63.8419L8.12499 62.6659L10.92 57.8679Z" fill="url(#paint1_linear_25_1014)"/>
</g>
<g clip-path="url(#clip2_25_1014)">
<path d="M58.92 57.8679C59.03 57.6791 59.1877 57.5224 59.3772 57.4135C59.5667 57.3046 59.7814 57.2473 60 57.2473C60.2185 57.2473 60.4333 57.3046 60.6228 57.4135C60.8123 57.5224 60.9699 57.6791 61.08 57.8679L63.875 62.6659L69.303 63.8419C69.5165 63.8883 69.7141 63.9899 69.8761 64.1365C70.0382 64.2831 70.159 64.4696 70.2264 64.6774C70.2939 64.8852 70.3058 65.1071 70.2608 65.3209C70.2158 65.5347 70.1155 65.733 69.97 65.8959L66.27 70.0369L66.83 75.562C66.8521 75.7795 66.8167 75.9991 66.7274 76.1987C66.6381 76.3983 66.498 76.571 66.3211 76.6995C66.1442 76.828 65.9367 76.9079 65.7192 76.9312C65.5018 76.9544 65.2821 76.9202 65.082 76.832L60 74.5919L54.918 76.832C54.7179 76.9202 54.4982 76.9544 54.2807 76.9312C54.0633 76.9079 53.8558 76.828 53.6789 76.6995C53.5019 76.571 53.3618 76.3983 53.2726 76.1987C53.1833 75.9991 53.1479 75.7795 53.17 75.562L53.73 70.0369L50.03 65.8969C49.8842 65.734 49.7837 65.5356 49.7386 65.3217C49.6935 65.1077 49.7052 64.8857 49.7727 64.6777C49.8402 64.4697 49.9611 64.2831 50.1233 64.1364C50.2855 63.9898 50.4833 63.8882 50.697 63.8419L56.125 62.6659L58.92 57.8679Z" fill="url(#paint2_linear_25_1014)"/>
</g>
<defs>
<linearGradient id="paint0_linear_25_1014" x1="25.1602" y1="67.3533" x2="46.7074" y2="68.2887" gradientUnits="userSpaceOnUse">
<stop stop-color="#C09E6C"/>
<stop offset="0.426246" stop-color="#FFEBCC"/>
<stop offset="1" stop-color="#BF936B"/>
</linearGradient>
<linearGradient id="paint1_linear_25_1014" x1="1.16022" y1="60.3533" x2="22.7074" y2="61.2887" gradientUnits="userSpaceOnUse">
<stop stop-color="#C09E6C"/>
<stop offset="0.426246" stop-color="#FFEBCC"/>
<stop offset="1" stop-color="#BF936B"/>
</linearGradient>
<linearGradient id="paint2_linear_25_1014" x1="49.1602" y1="60.3533" x2="70.7074" y2="61.2887" gradientUnits="userSpaceOnUse">
<stop stop-color="#C09E6C"/>
<stop offset="0.426246" stop-color="#FFEBCC"/>
<stop offset="1" stop-color="#BF936B"/>
</linearGradient>
<clipPath id="clip0_25_1014">
<rect width="24" height="24" fill="white" transform="translate(24 62)"/>
</clipPath>
<clipPath id="clip1_25_1014">
<rect width="24" height="24" fill="white" transform="translate(0 55)"/>
</clipPath>
<clipPath id="clip2_25_1014">
<rect width="24" height="24" fill="white" transform="translate(48 55)"/>
</clipPath>
</defs>
</svg>
