<svg width="200" height="201" viewBox="0 0 200 201" fill="none" xmlns="http://www.w3.org/2000/svg">
<g opacity="0.08">
<path d="M141.359 66.8828V46.9609C141.359 45.4492 140.137 44.2266 138.625 44.2266H133.098V33.5508L141.934 38.8438C145.23 41.0352 148.684 42.1289 151.898 42.1289C153.539 42.1515 155.168 41.8474 156.691 41.2345C158.213 40.6215 159.598 39.7119 160.766 38.5586C166.125 33.2539 166.172 24.6055 160.867 19.2461C158.453 16.8008 155.352 15.5742 151.957 15.5742C148.805 15.5742 145.402 16.6328 142.059 18.75L133.098 23.9688V10.6328C133.098 9.12109 131.875 7.89844 130.363 7.89844H106.316C104.809 7.89844 103.582 9.12109 103.582 10.6328V26.1211H98.0586C96.5469 26.1211 95.3242 27.3437 95.3242 28.8555C95.3242 30.3633 96.5469 31.5898 98.0586 31.5898H103.582V44.2227H98.0586C96.5469 44.2227 95.3242 45.4492 95.3242 46.957V66.918C89.3968 69.0064 83.7754 71.8782 78.6094 75.457C76.0547 74.4492 73.3359 73.9336 70.5898 73.9375H70.4023C64.4023 73.9609 58.6836 76.4805 54.6133 80.8906C51.4184 84.3395 49.414 88.7221 48.8945 93.3945C47.9001 92.8893 46.8445 92.5151 45.7539 92.2812C41.8945 91.4492 37.8711 92.5938 35.0234 95.3359C34.8828 95.4688 34.7422 95.6055 34.6055 95.7422C34.4687 95.8828 34.332 96.0234 34.207 96.168C32.8471 97.6351 31.867 99.4128 31.3523 101.346C30.8375 103.279 30.8037 105.309 31.2539 107.258C31.5 108.34 31.8828 109.391 32.3945 110.375C27.6473 110.93 23.2113 113.02 19.7617 116.328C11.0781 124.68 10.8086 138.492 19.164 147.176C19.4414 147.465 19.7265 147.746 20.0195 148.02C23.5179 151.265 27.9791 153.281 32.7265 153.762C32.2378 154.754 31.8756 155.804 31.6484 156.887C31.2305 158.843 31.2975 160.871 31.8436 162.795C32.3897 164.72 33.3982 166.481 34.7812 167.926C34.914 168.066 35.0508 168.203 35.1875 168.34C35.3242 168.477 35.4687 168.613 35.6133 168.742C37.8086 170.781 40.6914 171.918 43.6875 171.926C44.5976 171.926 45.5039 171.824 46.3906 171.617C47.4844 171.367 48.5391 170.973 49.5273 170.445C50.1171 175.117 52.1948 179.475 55.4531 182.875C57.4796 185 59.9185 186.69 62.6207 187.84C65.3229 188.99 68.2313 189.576 71.168 189.562H71.3555C74.289 189.543 77.1875 188.938 79.8789 187.773C82.3945 189.652 85.0508 191.336 87.8242 192.816C88.2031 193.004 88.6211 193.102 89.043 193.105H147.75C148.172 193.105 148.59 193.004 148.969 192.816C172.234 181.219 186.937 157.461 186.93 131.469C186.93 102.465 168.684 76.6055 141.359 66.8828ZM144.855 23.4492C144.887 23.4297 144.914 23.4102 144.945 23.3906C146.723 22.2617 152.836 18.9023 156.98 23.0898C160.16 26.3047 160.133 31.4922 156.918 34.6719C154.699 36.8672 150.379 37.9141 144.914 34.2578C144.875 34.2344 144.84 34.2109 144.801 34.1875L135.742 28.7578L144.855 23.4492ZM109.051 13.3672H127.629V44.2227H109.051V13.3672ZM100.793 49.6914H135.891V66.1211H100.793V49.6914ZM58.6172 84.6133C60.1263 82.9799 61.9557 81.6749 63.9914 80.7797C66.0271 79.8845 68.2254 79.4183 70.4492 79.4102H70.5898C72.7891 79.4006 74.9671 79.8398 76.9908 80.7008C79.0145 81.5619 80.8413 82.8267 82.3594 84.418C83.898 86.018 85.0955 87.9141 85.8791 89.991C86.6627 92.0679 87.0162 94.2823 86.918 96.5C86.8633 97.5664 86.6172 98.6094 86.1836 99.582C86.1758 99.6055 86.164 99.6328 86.1523 99.6562C86.0937 99.7852 86.0351 99.9141 85.9687 100.047L85.0351 101.891L83.8633 104.176C83.8242 104.254 83.7851 104.336 83.7539 104.414L76.3516 119.027C75.3446 118.593 74.2887 118.282 73.207 118.102L73.168 109.449C73.1601 107.945 71.9375 106.727 70.4336 106.727H70.4219C68.9101 106.734 67.6914 107.965 67.6992 109.473L67.7422 118.262C66.8672 118.465 66.0156 118.754 65.1992 119.121L57.664 104.832C57.6133 104.684 57.5508 104.535 57.4765 104.395L55.2851 100.285C55.1484 99.9648 54.9961 99.6562 54.8398 99.3516C54.5156 98.5271 54.3206 97.6574 54.2617 96.7734C54.1261 94.5572 54.4423 92.3365 55.191 90.2462C55.9397 88.1559 57.1053 86.2395 58.6172 84.6133ZM93.1758 129.094H93.1445L84.4922 129.188C84.2928 128.112 83.9649 127.064 83.5156 126.066L98.0547 118.398C98.0781 118.387 98.1055 118.375 98.1328 118.363L99.5273 117.621L102.336 116.141C103.426 115.558 104.627 115.215 105.859 115.133C110.336 114.859 114.73 116.434 118.016 119.488C124.625 125.645 124.992 135.988 118.836 142.594C118.637 142.812 118.426 143.027 118.211 143.23C116.612 144.77 114.716 145.968 112.639 146.752C110.562 147.536 108.347 147.889 106.129 147.789C105.102 147.734 104.086 147.5 103.141 147.094L102.754 146.918C102.699 146.891 102.641 146.867 102.586 146.84L100.855 145.965L98.332 144.676C98.2773 144.645 98.2187 144.625 98.164 144.598L83.6015 137.223C83.957 136.398 84.2305 135.539 84.4219 134.66L93.2031 134.562C93.5623 134.561 93.9175 134.488 94.2486 134.349C94.5797 134.21 94.8801 134.007 95.1326 133.751C95.3851 133.496 95.5848 133.193 95.7202 132.86C95.8557 132.528 95.9242 132.172 95.9219 131.812C95.9177 131.088 95.6262 130.395 95.1113 129.885C94.5964 129.375 93.9003 129.091 93.1758 129.094ZM98.4219 150.859L100.141 151.734C100.207 151.77 100.277 151.801 100.344 151.832C100.391 151.852 100.437 151.871 100.48 151.891C100.621 151.957 100.758 152.023 100.898 152.082C103.059 153.129 104.637 155.094 105.187 157.43C105.711 159.645 105.09 161.977 103.531 163.633C103.449 163.727 103.359 163.816 103.27 163.91C103.18 164.004 103.094 164.086 103 164.172C102.242 164.916 101.311 165.459 100.291 165.753C99.2709 166.047 98.1935 166.082 97.1562 165.855C94.8125 165.316 92.8359 163.75 91.7773 161.59C91.6797 161.371 91.5781 161.156 91.4687 160.938C91.4375 160.871 91.4101 160.805 91.375 160.738L91.2461 160.496L81.6914 142.387L98.4219 150.859ZM92.8672 170.082C93.8633 170.594 94.9258 170.969 96.0234 171.203C96.8476 171.379 97.6914 171.469 98.539 171.469C101.602 171.461 104.543 170.273 106.754 168.148C106.895 168.016 107.035 167.879 107.168 167.742C107.305 167.605 107.441 167.461 107.57 167.316C108.93 165.85 109.909 164.073 110.424 162.14C110.939 160.208 110.973 158.179 110.523 156.23C110.279 155.15 109.898 154.106 109.391 153.121C114.129 152.563 118.556 150.475 122 147.172C130.684 138.82 130.949 125.008 122.594 116.324C122.316 116.035 122.031 115.754 121.738 115.48C118.242 112.237 113.784 110.223 109.039 109.742C109.535 108.746 109.902 107.691 110.129 106.602C110.547 104.646 110.479 102.618 109.933 100.695C109.387 98.7713 108.379 97.0107 106.996 95.5664C106.863 95.4258 106.727 95.2852 106.59 95.1484C106.453 95.0156 106.309 94.875 106.164 94.7461C104.74 93.4205 103.012 92.4651 101.132 91.9638C99.2521 91.4625 97.2779 91.4307 95.3828 91.8711C94.2845 92.125 93.2245 92.523 92.2305 93.0547C92.1735 92.6193 92.1045 92.1855 92.0234 91.7539C95.6719 89.3359 99.625 87.4141 103.777 86.0391H133.82C158.664 94.3359 172.078 121.199 163.781 146.039C159.865 157.775 151.516 167.516 140.516 173.18H97.1015C95.6289 172.34 94.1992 171.422 92.8242 170.426C92.8398 170.312 92.8555 170.199 92.8672 170.082ZM96.6055 97.2031C98.707 96.707 100.914 97.3008 102.477 98.7891C102.57 98.8711 102.66 98.9609 102.754 99.0508C102.848 99.1445 102.93 99.2266 103.02 99.3203C103.8 100.123 104.37 101.107 104.677 102.185C104.983 103.262 105.018 104.398 104.777 105.492C104.522 106.662 104.006 107.759 103.268 108.703C102.53 109.646 101.589 110.411 100.516 110.941C100.453 110.969 100.391 111 100.328 111.031C100.23 111.078 100.129 111.125 100.027 111.172C99.957 111.199 99.8906 111.234 99.8242 111.27L96.9219 112.812L81.5156 120.938L89.8984 104.391L90.9101 102.414C90.9492 102.336 90.9844 102.258 91.0156 102.18C91.0469 102.102 91.0859 102.023 91.1172 101.945C91.1562 101.855 91.1953 101.77 91.2344 101.68C92.2461 99.4453 94.2226 97.793 96.6055 97.2031ZM79.2617 131.742C79.2617 136.375 75.5078 140.133 70.8789 140.133C66.25 140.133 62.4961 136.375 62.4961 131.742C62.4961 127.109 66.25 123.352 70.8789 123.352C75.5078 123.352 79.2617 127.109 79.2617 131.742ZM38.2461 99.8516C38.332 99.7617 38.418 99.668 38.5078 99.5781C38.5976 99.4883 38.6836 99.4023 38.7773 99.3164C40.3164 97.8047 42.5117 97.1719 44.6211 97.6328C45.7331 97.8875 46.7773 98.3782 47.6831 99.0717C48.5889 99.7652 49.3351 100.645 49.8711 101.652C50.043 102.055 50.2266 102.457 50.4336 102.848L60.0664 121.117L46.0976 114.039C46.043 114.008 45.9883 113.973 45.9336 113.945L41.6367 111.75C41.5703 111.715 41.5 111.684 41.4297 111.656C40.2329 111.179 39.1684 110.421 38.326 109.446C37.4837 108.471 36.8882 107.308 36.5898 106.055C36.332 104.964 36.3483 103.827 36.6373 102.745C36.9263 101.662 37.4791 100.668 38.2461 99.8516ZM23.7422 144.012C17.1367 137.859 16.7695 127.512 22.9219 120.906C23.125 120.687 23.3359 120.477 23.5469 120.27C25.1469 118.731 27.0429 117.533 29.1199 116.75C31.1968 115.966 33.4112 115.613 35.6289 115.711C36.8672 115.773 38.0742 116.098 39.1719 116.66L58.1562 126.277C57.7291 127.273 57.4197 128.315 57.2344 129.383L48.5625 129.461C47.0547 129.469 45.8359 130.699 45.8398 132.207C45.8415 132.566 45.914 132.922 46.0531 133.253C46.1923 133.585 46.3953 133.885 46.6507 134.138C46.9061 134.391 47.2088 134.591 47.5415 134.727C47.8742 134.863 48.2305 134.932 48.5898 134.93H48.6133L57.3789 134.852C57.582 135.738 57.8711 136.605 58.2422 137.434L43.8125 145.047C43.7578 145.07 43.6992 145.094 43.6445 145.125L41.2109 146.418L39.4258 147.359C39.3633 147.395 39.3008 147.422 39.2344 147.453C39.1172 147.508 39.0039 147.562 38.8867 147.621C37.9453 148.047 36.9336 148.301 35.8984 148.367C31.4219 148.641 27.0273 147.066 23.7422 144.012ZM50.8672 161.074C50.832 161.141 50.8047 161.207 50.7734 161.277C50.6719 161.492 50.5703 161.711 50.4805 161.93C49.974 163.004 49.2349 163.952 48.3168 164.705C47.3986 165.459 46.3244 165.998 45.1719 166.285C44.1385 166.529 43.0606 166.512 42.0356 166.235C41.0106 165.958 40.0706 165.43 39.3008 164.699C39.207 164.613 39.1172 164.527 39.0273 164.438C38.9375 164.348 38.8476 164.258 38.7617 164.168C37.9811 163.365 37.4118 162.381 37.105 161.304C36.7983 160.226 36.7635 159.09 37.0039 157.996C37.2573 156.837 37.7661 155.748 38.4932 154.811C39.2203 153.873 40.1474 153.109 41.207 152.574C41.3398 152.516 41.4687 152.453 41.5976 152.387C41.6484 152.363 41.6992 152.34 41.7539 152.316C41.8242 152.285 41.8906 152.254 41.957 152.219L43.8281 151.227L60.2461 142.562L50.9883 160.844L50.8672 161.074ZM71.3125 184.094H71.1719C68.9717 184.103 66.7928 183.664 64.7684 182.802C62.744 181.94 60.9168 180.674 59.3984 179.082C57.8603 177.482 56.6635 175.586 55.8805 173.509C55.0975 171.432 54.7448 169.217 54.8437 167C54.8906 166.055 55.0898 165.121 55.4414 164.242C55.5586 163.996 55.6719 163.742 55.7773 163.488C55.7809 163.477 55.7862 163.467 55.793 163.457L55.8555 163.332L57.914 159.316C57.9648 159.215 58.0078 159.113 58.0469 159.008L65.4062 144.48C66.25 144.844 67.125 145.121 68.0234 145.309L68.0664 154.059C68.0742 155.562 69.2969 156.781 70.8008 156.781H70.8164C71.5416 156.777 72.2354 156.485 72.7452 155.969C73.2551 155.454 73.5392 154.756 73.5351 154.031L73.4961 145.352C74.5508 145.148 75.582 144.82 76.5625 144.379L84.1641 158.789C84.2031 158.895 84.25 158.996 84.3008 159.098L86.4492 163.121L86.4922 163.203C86.4961 163.211 86.5 163.215 86.5039 163.223C86.6133 163.48 86.7305 163.734 86.8555 163.98C87.2187 164.855 87.4375 165.785 87.5 166.73C87.7734 171.207 86.1992 175.602 83.1445 178.883C81.6369 180.519 79.8079 181.826 77.772 182.722C75.7361 183.619 73.5371 184.086 71.3125 184.094ZM171.762 165.086C165.709 174.677 157.191 182.465 147.098 187.637H89.7109C88.0742 186.727 86.4883 185.734 84.9609 184.66C85.7356 184.027 86.4664 183.342 87.1484 182.609C88.9272 180.691 90.3481 178.47 91.3437 176.051C92.5859 176.898 93.875 177.672 95.207 178.363C95.5859 178.551 96.0078 178.652 96.4297 178.652H141.172C141.598 178.652 142.016 178.551 142.395 178.363C168.535 165.324 179.16 133.562 166.125 107.422C162.988 101.131 158.629 95.5294 153.302 90.9431C147.976 86.3568 141.788 82.8783 135.102 80.7109C134.831 80.6219 134.547 80.5771 134.262 80.5781H103.34C103.055 80.5781 102.77 80.6211 102.5 80.7109C98.207 82.0938 94.1016 84 90.2734 86.3867C88.8056 83.2973 86.6343 80.5949 83.9336 78.4961C88.5018 75.6021 93.41 73.2838 98.5469 71.5938H138.246C171.316 82.5664 189.227 118.273 178.25 151.344C176.648 156.168 174.473 160.781 171.762 165.086Z" fill="url(#paint0_linear_34_4127)"/>
</g>
<defs>
<linearGradient id="paint0_linear_34_4127" x1="8.40951" y1="37.1127" x2="190.544" y2="44.2159" gradientUnits="userSpaceOnUse">
<stop stop-color="#C09E6C"/>
<stop offset="0.426246" stop-color="#FFEBCC"/>
<stop offset="1" stop-color="#BF936B"/>
</linearGradient>
</defs>
</svg>
