<svg opacity="0.08" width="309" height="380" viewBox="0 0 309 380" fill="" xmlns="http://www.w3.org/2000/svg">
<path d="M225.054 379.189H73.2703C71.9295 379.188 70.6368 378.689 69.6432 377.789C27.4865 339.589 0.243225 283.01 0.243225 233.643C0.243225 150.21 65.3135 87.2969 151.595 87.2969C237.876 87.2969 302.946 150.21 302.946 233.643C302.946 290.367 262.946 346.756 228.681 377.789C227.688 378.689 226.395 379.188 225.054 379.189ZM75.3784 368.378H222.946C255.222 338.551 292.135 286 292.135 233.643C292.135 156.378 231.714 98.1077 151.595 98.1077C71.4757 98.1077 11.054 156.378 11.054 233.643C11.054 279.502 36.2432 332.162 75.3784 368.378Z" fill="url(#paint0_linear_34_4127)"/>
<path d="M194.838 96.3801H184.027V17.0287C184.027 15.5951 183.457 14.2202 182.444 13.2065C181.43 12.1928 180.055 11.6233 178.622 11.6233H124.568C123.134 11.6233 121.759 12.1928 120.745 13.2065C119.732 14.2202 119.162 15.5951 119.162 17.0287V44.0557H108.351V17.0287C108.351 12.7279 110.06 8.60325 113.101 5.56212C116.142 2.52099 120.267 0.8125 124.568 0.8125H178.622C182.922 0.8125 187.047 2.52099 190.088 5.56212C193.129 8.60325 194.838 12.7279 194.838 17.0287V96.3801ZM108.351 65.6774H119.162V96.3801H108.351V65.6774Z" fill="url(#paint0_linear_34_4127)"/>
<path d="M146.189 27.8399H157V38.6507H146.189V27.8399ZM219.33 33.8561L284.162 1.44531L288.995 11.1102L224.162 43.5156L219.33 33.8561ZM219.362 65.2237L224.195 55.5588L289.027 87.9696L284.195 97.6345L219.362 65.2237ZM243.486 44.0561H308.351V54.8669H243.486V44.0561ZM214.243 352.164H84.1351C83.4172 352.163 82.7067 352.02 82.045 351.741C81.3832 351.463 80.7836 351.055 80.2811 350.543C48.0811 317.786 27.2703 271.889 27.2703 233.624C27.2675 225.337 28.0822 217.07 29.7027 208.943C29.8705 208.103 30.2354 207.315 30.7673 206.644C31.2993 205.973 31.983 205.438 32.7622 205.083C57.3243 193.905 105.811 180.007 154.595 212.532C167.005 220.977 181.069 226.689 195.854 229.289L194.038 239.948C177.758 237.109 162.267 230.845 148.589 221.57C105.795 193.04 63.0054 203.856 39.7892 213.84C38.6542 220.373 38.0827 226.992 38.0811 233.624C38.0811 268.586 57 310.64 86.4216 341.353H211.984C236.849 315.862 265.108 273.04 265.108 233.624V231.278C249.705 237.667 233.259 241.174 216.589 241.624L216.384 230.813C234.186 230.278 251.679 226.019 267.735 218.31C268.52 217.938 269.383 217.76 270.251 217.793C271.119 217.825 271.966 218.065 272.721 218.494C273.477 218.923 274.117 219.528 274.589 220.257C275.061 220.986 275.35 221.819 275.432 222.683C275.773 226.229 275.941 229.91 275.941 233.624C275.941 277.121 246.059 322.564 218.103 350.58C217.596 351.087 216.994 351.488 216.332 351.76C215.669 352.032 214.959 352.169 214.243 352.164Z" fill="url(#paint0_linear_34_4127)"/>
<defs>

<linearGradient id="paint0_linear_34_4127" x1="8.40951" y1="37.1127" x2="190.544" y2="44.2159" gradientUnits="userSpaceOnUse">
<stop stop-color="#C09E6C"/>
<stop offset="0.426246" stop-color="#FFEBCC"/>
<stop offset="1" stop-color="#BF936B"/>
</linearGradient>
</defs>
</svg>
