<svg width="24" height="25" viewBox="0 0 24 25" fill="none" xmlns="http://www.w3.org/2000/svg">
<path d="M9.57834 15.0352C9.33741 15.0352 9.10635 15.1278 8.93599 15.2927C8.76563 15.4575 8.66992 15.6811 8.66992 15.9143C8.66992 16.1475 8.76563 16.3711 8.93599 16.536C9.10635 16.7008 9.33741 16.7935 9.57834 16.7935H14.4232C14.6641 16.7935 14.8952 16.7008 15.0656 16.536C15.2359 16.3711 15.3316 16.1475 15.3316 15.9143C15.3316 15.6811 15.2359 15.4575 15.0656 15.2927C14.8952 15.1278 14.6641 15.0352 14.4232 15.0352H9.57834Z" fill="currentColor"/>
<path fill-rule="evenodd" clip-rule="evenodd" d="M17.2745 6.71589L18.6429 6.76426C19.1613 6.79021 19.6325 6.82914 20.0601 6.8893C21.3391 7.06743 22.3977 7.452 23.1499 8.35797C23.9021 9.26513 24.0668 10.3528 23.9784 11.6079C23.8936 12.8242 23.5544 14.3589 23.1329 16.2758L22.5867 18.7614C22.302 20.0554 22.0707 21.1042 21.78 21.9228C21.4772 22.7781 21.0775 23.48 20.3968 24.0167C19.7161 24.5535 18.9264 24.7859 18.0058 24.8956C17.1216 25.0006 16.0194 25.0006 14.6629 25.0006H9.33834C7.97935 25.0006 6.87835 25.0006 5.99416 24.8956C5.07364 24.7859 4.28392 24.5535 3.60321 24.0167C2.9213 23.48 2.5228 22.7781 2.22 21.924C1.92931 21.1042 1.69917 20.0554 1.41333 18.7625L0.867066 16.277C0.445561 14.3589 0.10763 12.8242 0.0216336 11.6079C-0.0667855 10.3528 0.0979405 9.26513 0.850108 8.35797C1.60107 7.452 2.65967 7.06743 3.93872 6.8893C4.36628 6.83032 4.83866 6.79021 5.35585 6.76426L8.80419 6.71589H15.197C15.6839 6.71589 16.8336 6.71353 17.2745 6.71589ZM4.40867 8.61278L3.92055 9.56358C3.86617 9.66764 3.83347 9.78116 3.82435 9.89758C3.81522 10.014 3.82985 10.131 3.86739 10.2419C3.90493 10.3528 3.96463 10.4554 4.04306 10.5437C4.12149 10.632 4.21709 10.7043 4.32436 10.7565C4.43162 10.8087 4.54842 10.8396 4.66803 10.8476C4.78764 10.8556 4.90769 10.8404 5.02125 10.803C5.13482 10.7656 5.23966 10.7066 5.32972 10.6296C5.41979 10.5525 5.49329 10.4588 5.54601 10.354L6.49924 8.49717C7.18964 8.48538 7.97693 8.4842 8.87808 8.4842H15.1231C16.0243 8.4842 16.8116 8.4842 17.502 8.49599L18.4552 10.354C18.5639 10.562 18.7527 10.7198 18.9803 10.7929C19.208 10.866 19.4561 10.8485 19.6705 10.7442C19.885 10.6399 20.0485 10.4573 20.1253 10.2362C20.2021 10.015 20.1861 9.77326 20.0807 9.56358L19.5925 8.61278L19.8033 8.63991C20.874 8.78973 21.3985 9.06223 21.7376 9.46921C22.0707 9.87029 22.2342 10.4165 22.1688 11.4333H1.83241C1.767 10.4165 1.93052 9.87029 2.2636 9.46921C2.60274 9.06223 3.1272 8.78973 4.19792 8.63991L4.40867 8.61278ZM2.65967 15.9762C2.45145 15.055 2.25723 14.1308 2.07708 13.204H21.9241C21.7433 14.1308 21.5487 15.0549 21.3403 15.9762L20.8219 18.3355C20.5215 19.698 20.3132 20.6406 20.0625 21.346C19.8202 22.0302 19.5732 22.3912 19.2546 22.6412C18.9373 22.8913 18.5218 23.0518 17.7866 23.1391C17.0247 23.2299 16.034 23.2311 14.6035 23.2311H9.39648C7.96724 23.2311 6.97646 23.2299 6.2146 23.1391C5.47818 23.0518 5.06395 22.8913 4.74661 22.6412C4.42805 22.3912 4.17975 22.029 3.93872 21.346C3.688 20.6406 3.47846 19.698 3.17929 18.3355L2.65967 15.9762Z" fill="currentColor"/>
<path d="M19.2 10.1445C19.2 10.1445 16.8 1.00167 12 1.00167C7.20005 1.00167 4.80005 10.1445 4.80005 10.1445" stroke="currentColor" stroke-width="2" stroke-linecap="round" stroke-linejoin="round"/>
</svg>
